<svg width="14" height="14" viewBox="0 0 14 14" fill="none" xmlns="http://www.w3.org/2000/svg">
<path d="M10.9102 10.8008C10.6003 10.2721 10.181 9.85286 9.65234 9.54297C9.1237 9.21484 8.53125 9.05078 7.875 9.05078H6.125C5.46875 9.05078 4.8763 9.21484 4.34766 9.54297C3.81901 9.85286 3.39974 10.2721 3.08984 10.8008C3.58203 11.3477 4.15625 11.776 4.8125 12.0859C5.48698 12.3958 6.21615 12.5508 7 12.5508C7.78385 12.5508 8.51302 12.3958 9.1875 12.0859C9.84375 11.776 10.418 11.3477 10.9102 10.8008ZM0 7.30078C0.0182292 6.02474 0.328125 4.85807 0.929688 3.80078C1.54948 2.74349 2.40625 1.88672 3.5 1.23047C4.61198 0.610677 5.77865 0.300781 7 0.300781C8.22135 0.300781 9.38802 0.610677 10.5 1.23047C11.5938 1.88672 12.4505 2.74349 13.0703 3.80078C13.6719 4.85807 13.9818 6.02474 14 7.30078C13.9818 8.57682 13.6719 9.74349 13.0703 10.8008C12.4505 11.8581 11.5938 12.7148 10.5 13.3711C9.38802 13.9909 8.22135 14.3008 7 14.3008C5.77865 14.3008 4.61198 13.9909 3.5 13.3711C2.40625 12.7148 1.54948 11.8581 0.929688 10.8008C0.328125 9.74349 0.0182292 8.57682 0 7.30078ZM7 7.73828C7.7474 7.72005 8.3125 7.39193 8.69531 6.75391C9.0599 6.09766 9.0599 5.44141 8.69531 4.78516C8.3125 4.14714 7.7474 3.81901 7 3.80078C6.2526 3.81901 5.6875 4.14714 5.30469 4.78516C4.9401 5.44141 4.9401 6.09766 5.30469 6.75391C5.6875 7.39193 6.2526 7.72005 7 7.73828Z" fill="#8A2BE2"/>
</svg>
