<svg width="15" height="14" viewBox="0 0 15 14" fill="none" xmlns="http://www.w3.org/2000/svg">
<path d="M8.51953 10.3359C9.30339 10.2083 9.92318 9.81641 10.3789 9.16016L14.7812 2.32422C14.9635 2.05078 15.0365 1.75911 15 1.44922C14.9453 1.13932 14.8086 0.875 14.5898 0.65625C14.3346 0.4375 14.0521 0.319011 13.7422 0.300781C13.4505 0.282552 13.168 0.373698 12.8945 0.574219L6.41406 5.41406C5.73958 5.94271 5.39323 6.63542 5.375 7.49219L8.51953 10.3359ZM8 11.0469L4.82812 8.17578C3.98958 8.23047 3.28776 8.54036 2.72266 9.10547C2.17578 9.6888 1.89323 10.3997 1.875 11.2383C1.875 11.3477 1.88411 11.457 1.90234 11.5664C1.92057 11.8034 1.85677 12.0221 1.71094 12.2227C1.5651 12.4232 1.3737 12.5326 1.13672 12.5508H1C0.744792 12.5508 0.535156 12.6328 0.371094 12.7969C0.207031 12.9609 0.125 13.1706 0.125 13.4258C0.125 13.681 0.207031 13.8906 0.371094 14.0547C0.535156 14.2188 0.744792 14.3008 1 14.3008H4.9375C5.8125 14.2826 6.53255 13.9818 7.09766 13.3984C7.68099 12.8333 7.98177 12.1133 8 11.2383C8 11.2018 8 11.1654 8 11.1289C8 11.0924 8 11.0651 8 11.0469Z" fill="#8A2BE2"/>
</svg>
