<svg width="18" height="14" viewBox="0 0 18 14" fill="none" xmlns="http://www.w3.org/2000/svg">
<g clip-path="url(#clip0_3318_2274)">
<path d="M1.50781 0.4375C1.16146 0.21875 0.851562 0.255208 0.578125 0.546875C0.359375 0.893229 0.395833 1.20312 0.6875 1.47656L16.875 14.1641C17.2214 14.3828 17.5312 14.3464 17.8047 14.0547C18.0234 13.7083 17.987 13.3984 17.6953 13.125L10.0938 7.19141C10.8594 6.97266 11.4792 6.5625 11.9531 5.96094C12.4271 5.34115 12.6732 4.62109 12.6914 3.80078C12.6732 2.81641 12.3359 1.98698 11.6797 1.3125C11.0052 0.65625 10.1758 0.31901 9.19141 0.30078C8.20703 0.31901 7.38672 0.65625 6.73047 1.3125C6.07422 1.95052 5.72786 2.7526 5.69141 3.71875L1.50781 0.4375ZM7.66016 8.61328C6.34766 8.72266 5.26302 9.23307 4.40625 10.1445C3.54948 11.0378 3.10286 12.1497 3.06641 13.4805C3.06641 13.7174 3.14844 13.9089 3.3125 14.0547C3.45833 14.2187 3.64974 14.3008 3.88672 14.3008H14.4961C14.6055 14.3008 14.7057 14.2826 14.7969 14.2461L7.66016 8.61328Z" fill="#8A2BE2"/>
</g>
<defs>
<clipPath id="clip0_3318_2274">
<rect width="17.5" height="14" fill="white" transform="translate(0.25)"/>
</clipPath>
</defs>
</svg>
