<svg width="18" height="18" viewBox="0 0 18 18" fill="none" xmlns="http://www.w3.org/2000/svg">
<path d="M0 8.75C0 3.91751 3.91751 0 8.75 0C13.5825 0 17.5 3.91751 17.5 8.75C17.5 13.5825 13.5825 17.5 8.75 17.5C3.91751 17.5 0 13.5825 0 8.75Z" fill="#121214"/>
<g clip-path="url(#clip0_3312_342)">
<path d="M14.041 8.64746C14.0273 9.44043 13.7881 10.1582 13.3232 10.8008C12.8584 11.4434 12.2295 11.9561 11.4365 12.3389C10.6572 12.708 9.77539 12.8994 8.79102 12.9131C8.02539 12.9131 7.31445 12.79 6.6582 12.5439C6.39844 12.7354 6.0293 12.9473 5.55078 13.1797C5.03125 13.4121 4.4707 13.542 3.86914 13.5693C3.73242 13.5693 3.62988 13.501 3.56152 13.3643C3.52051 13.2275 3.54785 13.1113 3.64355 13.0156V12.9951C3.64355 12.9951 3.65039 12.9883 3.66406 12.9746C3.69141 12.9473 3.72559 12.9062 3.7666 12.8516C3.8623 12.7559 3.96484 12.6123 4.07422 12.4209C4.30664 12.0654 4.45703 11.6348 4.52539 11.1289C3.88281 10.418 3.55469 9.59082 3.54102 8.64746C3.55469 7.85449 3.79395 7.13672 4.25879 6.49414C4.72363 5.85156 5.35254 5.33887 6.14551 4.95605C6.9248 4.58691 7.80664 4.39551 8.79102 4.38184C9.77539 4.39551 10.6572 4.58691 11.4365 4.95605C12.2295 5.33887 12.8584 5.85156 13.3232 6.49414C13.7881 7.13672 14.0273 7.85449 14.041 8.64746Z" fill="#FF5A87"/>
</g>
<defs>
<clipPath id="clip0_3312_342">
<rect width="10.5" height="10.5" fill="white" transform="translate(3.5 3.5)"/>
</clipPath>
</defs>
</svg>
