<svg width="19" height="17" viewBox="0 0 19 17" fill="none" xmlns="http://www.w3.org/2000/svg">
<path d="M9.56836 15.1885C11.209 15.1657 12.6787 14.8467 13.9775 14.2314C15.2992 13.5934 16.3473 12.7389 17.1221 11.668C17.8968 10.597 18.2956 9.40072 18.3184 8.0791C18.2956 6.75749 17.8968 5.5612 17.1221 4.49023C16.3473 3.41927 15.2992 2.56478 13.9775 1.92676C12.6787 1.31152 11.209 0.992513 9.56836 0.969727C7.92773 0.992513 6.45801 1.31152 5.15918 1.92676C3.83756 2.56478 2.78939 3.41927 2.01465 4.49023C1.23991 5.5612 0.841146 6.75749 0.818359 8.0791C0.841146 9.65137 1.38802 11.0299 2.45898 12.2148C2.34505 13.0579 2.0944 13.7757 1.70703 14.3682C1.52474 14.6872 1.35384 14.9264 1.19434 15.0859C1.12598 15.1771 1.06901 15.2454 1.02344 15.291C1.02344 15.3138 1.01204 15.3252 0.989258 15.3252C0.989258 15.3252 0.989258 15.3366 0.989258 15.3594C0.829753 15.5189 0.78418 15.7126 0.852539 15.9404C0.966471 16.1683 1.13737 16.2822 1.36523 16.2822C2.36784 16.2367 3.30208 16.0202 4.16797 15.6328C4.96549 15.2682 5.58073 14.915 6.01367 14.5732C7.10742 14.9834 8.29232 15.1885 9.56836 15.1885ZM5.19336 6.98535C5.51237 6.98535 5.77441 7.08789 5.97949 7.29297C6.18457 7.49805 6.28711 7.76009 6.28711 8.0791C6.28711 8.39811 6.18457 8.66016 5.97949 8.86523C5.77441 9.07031 5.51237 9.17285 5.19336 9.17285C4.87435 9.17285 4.6123 9.07031 4.40723 8.86523C4.20215 8.66016 4.09961 8.39811 4.09961 8.0791C4.09961 7.76009 4.20215 7.49805 4.40723 7.29297C4.6123 7.08789 4.87435 6.98535 5.19336 6.98535ZM9.56836 6.98535C9.88737 6.98535 10.1494 7.08789 10.3545 7.29297C10.5596 7.49805 10.6621 7.76009 10.6621 8.0791C10.6621 8.39811 10.5596 8.66016 10.3545 8.86523C10.1494 9.07031 9.88737 9.17285 9.56836 9.17285C9.24935 9.17285 8.9873 9.07031 8.78223 8.86523C8.57715 8.66016 8.47461 8.39811 8.47461 8.0791C8.47461 7.76009 8.57715 7.49805 8.78223 7.29297C8.9873 7.08789 9.24935 6.98535 9.56836 6.98535ZM12.8496 8.0791C12.8496 7.76009 12.9521 7.49805 13.1572 7.29297C13.3623 7.08789 13.6243 6.98535 13.9434 6.98535C14.2624 6.98535 14.5244 7.08789 14.7295 7.29297C14.9346 7.49805 15.0371 7.76009 15.0371 8.0791C15.0371 8.39811 14.9346 8.66016 14.7295 8.86523C14.5244 9.07031 14.2624 9.17285 13.9434 9.17285C13.6243 9.17285 13.3623 9.07031 13.1572 8.86523C12.9521 8.66016 12.8496 8.39811 12.8496 8.0791Z" fill="#9CA3AF"/>
</svg>
