<svg width="17" height="18" viewBox="0 0 17 18" fill="none" xmlns="http://www.w3.org/2000/svg">
<g clip-path="url(#clip0_3312_406)">
<path d="M6.27832 1.04688C6.59733 0.796225 6.91634 0.807617 7.23535 1.08105C8.1696 1.94694 9.05827 2.90397 9.90137 3.95215C10.266 3.42806 10.6875 2.93815 11.166 2.48242C11.485 2.20898 11.804 2.20898 12.123 2.48242C12.7155 3.05208 13.251 3.6901 13.7295 4.39648C14.2308 5.08008 14.6523 5.78646 14.9941 6.51562C15.3587 7.222 15.6436 7.9056 15.8486 8.56641C16.0537 9.22721 16.1562 9.81966 16.1562 10.3438C16.1335 11.8021 15.7917 13.1351 15.1309 14.3428C14.4473 15.5505 13.5244 16.5189 12.3623 17.248C11.223 17.9772 9.93555 18.3532 8.5 18.376C7.06445 18.3532 5.76562 17.9772 4.60352 17.248C3.46419 16.5189 2.55273 15.5505 1.86914 14.3428C1.20833 13.1351 0.866536 11.8021 0.84375 10.3438C0.889323 8.97656 1.40202 7.47266 2.38184 5.83203C3.36165 4.16862 4.66048 2.57357 6.27832 1.04688ZM8.56836 15.0947C9.41146 15.0947 10.1976 14.8555 10.9268 14.377C11.6331 13.8529 12.0775 13.1579 12.2598 12.292C12.4193 11.4489 12.2939 10.6172 11.8838 9.79688C11.6559 9.47786 11.3939 9.45508 11.0977 9.72852L10.2432 10.7197C9.94694 10.9704 9.66211 10.959 9.38867 10.6855C9.09245 10.321 8.73926 9.87663 8.3291 9.35254C7.91895 8.82845 7.55436 8.37272 7.23535 7.98535C6.96191 7.71191 6.68848 7.70052 6.41504 7.95117C5.82259 8.68034 5.38965 9.30697 5.11621 9.83105C4.81999 10.3551 4.67188 10.8678 4.67188 11.3691C4.69466 12.554 5.07064 13.4655 5.7998 14.1035C6.52897 14.7643 7.45182 15.0947 8.56836 15.0947Z" fill="#9CA3AF"/>
</g>
<defs>
<clipPath id="clip0_3312_406">
<rect width="15.3125" height="17.5" fill="white" transform="translate(0.84375 0.5)"/>
</clipPath>
</defs>
</svg>
