<svg width="14" height="14" viewBox="0 0 14 14" fill="none" xmlns="http://www.w3.org/2000/svg">
<path d="M7 14.3008C8.27604 14.2826 9.44271 13.9727 10.5 13.3711C11.5573 12.7513 12.4141 11.8945 13.0703 10.8008C13.6901 9.6888 14 8.52214 14 7.30078C14 6.07943 13.6901 4.91276 13.0703 3.80078C12.4141 2.70703 11.5573 1.85026 10.5 1.23047C9.44271 0.628906 8.27604 0.319011 7 0.300781C5.72396 0.319011 4.55729 0.628906 3.5 1.23047C2.44271 1.85026 1.58594 2.70703 0.929688 3.80078C0.309896 4.91276 0 6.07943 0 7.30078C0 8.52214 0.309896 9.6888 0.929688 10.8008C1.58594 11.8945 2.44271 12.7513 3.5 13.3711C4.55729 13.9727 5.72396 14.2826 7 14.3008ZM4.64844 4.8125C4.75781 4.5026 4.9401 4.25651 5.19531 4.07422C5.45052 3.89193 5.7513 3.80078 6.09766 3.80078H7.68359C8.17578 3.81901 8.58594 3.99219 8.91406 4.32031C9.22396 4.63021 9.38802 5.03125 9.40625 5.52344C9.38802 6.17969 9.09635 6.68099 8.53125 7.02734L7.65625 7.51953C7.61979 7.92057 7.40104 8.13932 7 8.17578C6.59896 8.13932 6.38021 7.92057 6.34375 7.51953V7.16406C6.34375 6.90885 6.45312 6.71745 6.67188 6.58984L7.875 5.87891C8.02083 5.80599 8.09375 5.6875 8.09375 5.52344C8.07552 5.26823 7.9388 5.13151 7.68359 5.11328H6.09766C5.98828 5.11328 5.91536 5.15885 5.87891 5.25V5.30469C5.69661 5.66927 5.41406 5.79688 5.03125 5.6875C4.66667 5.52344 4.52995 5.25 4.62109 4.86719L4.64844 4.8125ZM6.125 9.92578C6.125 9.67057 6.20703 9.46094 6.37109 9.29688C6.53516 9.13281 6.74479 9.05078 7 9.05078C7.25521 9.05078 7.46484 9.13281 7.62891 9.29688C7.79297 9.46094 7.875 9.67057 7.875 9.92578C7.875 10.181 7.79297 10.3906 7.62891 10.5547C7.46484 10.7188 7.25521 10.8008 7 10.8008C6.74479 10.8008 6.53516 10.7188 6.37109 10.5547C6.20703 10.3906 6.125 10.181 6.125 9.92578Z" fill="#8A2BE2"/>
</svg>
