<svg width="14" height="13" viewBox="0 0 14 13" fill="none" xmlns="http://www.w3.org/2000/svg">
<path d="M10.3359 2.19922L13.6992 5.5625C13.8997 5.76302 14 6.00911 14 6.30078C14 6.59245 13.8997 6.83854 13.6992 7.03906L10.3359 10.4023C10.1536 10.5846 9.9349 10.6758 9.67969 10.6758C9.42448 10.6758 9.20573 10.5846 9.02344 10.4023C8.84115 10.2201 8.75 10.0013 8.75 9.74609V8.05078H5.25C4.99479 8.05078 4.78516 7.96875 4.62109 7.80469C4.45703 7.64062 4.375 7.43099 4.375 7.17578V5.42578C4.375 5.17057 4.45703 4.96094 4.62109 4.79688C4.78516 4.63281 4.99479 4.55078 5.25 4.55078H8.75V2.85547C8.75 2.60026 8.84115 2.38151 9.02344 2.19922C9.20573 2.01693 9.42448 1.92578 9.67969 1.92578C9.9349 1.92578 10.1536 2.01693 10.3359 2.19922ZM4.375 1.92578H2.625C2.36979 1.92578 2.16016 2.00781 1.99609 2.17188C1.83203 2.33594 1.75 2.54557 1.75 2.80078V9.80078C1.75 10.056 1.83203 10.2656 1.99609 10.4297C2.16016 10.5938 2.36979 10.6758 2.625 10.6758H4.375C4.63021 10.6758 4.83984 10.7578 5.00391 10.9219C5.16797 11.0859 5.25 11.2956 5.25 11.5508C5.25 11.806 5.16797 12.0156 5.00391 12.1797C4.83984 12.3438 4.63021 12.4258 4.375 12.4258H2.625C1.8776 12.4076 1.25781 12.1523 0.765625 11.6602C0.273438 11.168 0.0182292 10.5482 0 9.80078V2.80078C0.0182292 2.05339 0.273438 1.43359 0.765625 0.941406C1.25781 0.449219 1.8776 0.194011 2.625 0.175781H4.375C4.63021 0.175781 4.83984 0.257812 5.00391 0.421875C5.16797 0.585938 5.25 0.795573 5.25 1.05078C5.25 1.30599 5.16797 1.51562 5.00391 1.67969C4.83984 1.84375 4.63021 1.92578 4.375 1.92578Z" fill="#FF5A87"/>
</svg>
