<svg width="28" height="29" viewBox="0 0 28 29" fill="none" xmlns="http://www.w3.org/2000/svg">
<path d="M0 14.7031C0 6.97114 6.26801 0.703125 14 0.703125C21.732 0.703125 28 6.97114 28 14.7031C28 22.4351 21.732 28.7031 14 28.7031C6.26801 28.7031 0 22.4351 0 14.7031Z" fill="url(#paint0_linear_3316_1273)"/>
<g clip-path="url(#clip0_3316_1273)">
<path d="M14 17.8477C13.4167 17.8659 12.9792 18.1211 12.6875 18.6133C12.3958 19.1237 12.3958 19.6341 12.6875 20.1445C12.9792 20.6367 13.4167 20.8919 14 20.9102C14.5833 20.8919 15.0208 20.6367 15.3125 20.1445C15.6042 19.6341 15.6042 19.1237 15.3125 18.6133C15.0208 18.1211 14.5833 17.8659 14 17.8477ZM14 13.4727C13.4167 13.4909 12.9792 13.7461 12.6875 14.2383C12.3958 14.7487 12.3958 15.2591 12.6875 15.7695C12.9792 16.2617 13.4167 16.5169 14 16.5352C14.5833 16.5169 15.0208 16.2617 15.3125 15.7695C15.6042 15.2591 15.6042 14.7487 15.3125 14.2383C15.0208 13.7461 14.5833 13.4909 14 13.4727ZM15.5312 10.6289C15.513 10.0456 15.2578 9.60807 14.7656 9.31641C14.2552 9.02474 13.7448 9.02474 13.2344 9.31641C12.7422 9.60807 12.487 10.0456 12.4688 10.6289C12.487 11.2122 12.7422 11.6497 13.2344 11.9414C13.7448 12.2331 14.2552 12.2331 14.7656 11.9414C15.2578 11.6497 15.513 11.2122 15.5312 10.6289Z" fill="#FF5A87"/>
</g>
<defs>
<linearGradient id="paint0_linear_3316_1273" x1="0" y1="0" x2="28" y2="0" gradientUnits="userSpaceOnUse">
<stop stop-color="#FF5A87" stop-opacity="0.2"/>
<stop offset="1" stop-color="#8A2BE2" stop-opacity="0.2"/>
</linearGradient>
<clipPath id="clip0_3316_1273">
<rect width="3.5" height="14" fill="white" transform="translate(12.25 7.70312)"/>
</clipPath>
</defs>
</svg>
