<svg width="29" height="29" viewBox="0 0 29 29" fill="none" xmlns="http://www.w3.org/2000/svg">
<path d="M0.5 14.4531C0.5 6.72114 6.76801 0.453125 14.5 0.453125C22.232 0.453125 28.5 6.72114 28.5 14.4531C28.5 22.1851 22.232 28.4531 14.5 28.4531C6.76801 28.4531 0.5 22.1851 0.5 14.4531Z" fill="url(#paint0_linear_3312_98)"/>
<g clip-path="url(#clip0_3312_98)">
<path d="M14.6367 7.75391C14.3815 7.75391 14.1718 7.83594 14.0078 8C13.8437 8.16406 13.7617 8.3737 13.7617 8.62891V9.14844C12.7408 9.36719 11.9114 9.86849 11.2734 10.6523C10.6171 11.4362 10.2799 12.3659 10.2617 13.4414V13.9609C10.2434 15.2734 9.80595 16.431 8.94918 17.4336L8.73043 17.6797C8.49345 17.9531 8.44788 18.263 8.59371 18.6094C8.75777 18.9375 9.02209 19.1107 9.38668 19.1289H19.8867C20.2513 19.1107 20.5156 18.9375 20.6796 18.6094C20.8255 18.263 20.7799 17.9531 20.5429 17.6797L20.3515 17.4336C19.4765 16.4492 19.0299 15.2917 19.0117 13.9609V13.4414C18.9934 12.3659 18.6562 11.4362 18 10.6523C17.3619 9.86849 16.5325 9.36719 15.5117 9.14844V8.62891C15.5117 8.3737 15.4296 8.16406 15.2656 8C15.1015 7.83594 14.8919 7.75391 14.6367 7.75391ZM15.8671 21.2344C16.2135 20.888 16.3867 20.4779 16.3867 20.0039H14.6367H12.8867C12.8867 20.4779 13.0599 20.888 13.4062 21.2344C13.7526 21.5807 14.1627 21.7539 14.6367 21.7539C15.1106 21.7539 15.5208 21.5807 15.8671 21.2344Z" fill="#FF5A87"/>
</g>
<defs>
<linearGradient id="paint0_linear_3312_98" x1="0.5" y1="0" x2="28.5" y2="0" gradientUnits="userSpaceOnUse">
<stop stop-color="#FF5A87" stop-opacity="0.2"/>
<stop offset="1" stop-color="#8A2BE2" stop-opacity="0.2"/>
</linearGradient>
<clipPath id="clip0_3312_98">
<rect width="12.25" height="14" fill="white" transform="translate(8.375 7.45312)"/>
</clipPath>
</defs>
</svg>
