<svg width="13" height="14" viewBox="0 0 13 14" fill="none" xmlns="http://www.w3.org/2000/svg">
<path d="M6.1368 0.300781C5.88159 0.300781 5.67196 0.382812 5.50789 0.546875C5.34383 0.710938 5.2618 0.920573 5.2618 1.17578V1.69531C4.24097 1.91406 3.41154 2.41536 2.77352 3.19922C2.11727 3.98307 1.78003 4.91276 1.7618 5.98828V6.50781C1.74357 7.82031 1.30607 8.97786 0.4493 9.98047L0.23055 10.2266C-0.00642905 10.5 -0.052002 10.8099 0.0938314 11.1562C0.257894 11.4844 0.522217 11.6576 0.8868 11.6758H11.3868C11.7514 11.6576 12.0157 11.4844 12.1798 11.1562C12.3256 10.8099 12.28 10.5 12.043 10.2266L11.8516 9.98047C10.9766 8.99609 10.53 7.83854 10.5118 6.50781V5.98828C10.4936 4.91276 10.1563 3.98307 9.50008 3.19922C8.86206 2.41536 8.03263 1.91406 7.0118 1.69531V1.17578C7.0118 0.920573 6.92977 0.710938 6.76571 0.546875C6.60164 0.382812 6.39201 0.300781 6.1368 0.300781ZM7.36727 13.7812C7.71362 13.4349 7.8868 13.0247 7.8868 12.5508H6.1368H4.3868C4.3868 13.0247 4.55998 13.4349 4.90633 13.7812C5.25269 14.1276 5.66284 14.3008 6.1368 14.3008C6.61076 14.3008 7.02091 14.1276 7.36727 13.7812Z" fill="#8A2BE2"/>
</svg>
