<svg width="16" height="18" viewBox="0 0 16 18" fill="none" xmlns="http://www.w3.org/2000/svg">
<path d="M7.67088 0.875977C7.35187 0.875977 7.08982 0.978516 6.88475 1.18359C6.67967 1.38867 6.57713 1.65072 6.57713 1.96973V2.61914C5.30109 2.89258 4.2643 3.51921 3.46678 4.49902C2.64646 5.47884 2.22491 6.64095 2.20213 7.98535V8.63477C2.17934 10.2754 1.63247 11.7223 0.561503 12.9756L0.288066 13.2832C-0.00815838 13.625 -0.0651245 14.0124 0.117167 14.4453C0.322245 14.8555 0.652649 15.0719 1.10838 15.0947H14.2334C14.6891 15.0719 15.0195 14.8555 15.2246 14.4453C15.4069 14.0124 15.3499 13.625 15.0537 13.2832L14.8144 12.9756C13.7207 11.7451 13.1624 10.2982 13.1396 8.63477V7.98535C13.1168 6.64095 12.6953 5.47884 11.875 4.49902C11.0775 3.51921 10.0407 2.89258 8.76463 2.61914V1.96973C8.76463 1.65072 8.66209 1.38867 8.45701 1.18359C8.25193 0.978516 7.98989 0.875977 7.67088 0.875977ZM9.20896 17.7266C9.64191 17.2936 9.85838 16.7809 9.85838 16.1885H7.67088H5.48338C5.48338 16.7809 5.69985 17.2936 6.13279 17.7266C6.56573 18.1595 7.07843 18.376 7.67088 18.376C8.26333 18.376 8.77602 18.1595 9.20896 17.7266Z" fill="#9CA3AF"/>
</svg>
