<svg width="14" height="14" viewBox="0 0 14 14" fill="none" xmlns="http://www.w3.org/2000/svg">
<path d="M6.58982 0.300781C6.71742 0.300781 6.83591 0.328125 6.94529 0.382812L12.1133 2.57031C12.4232 2.69792 12.6692 2.89844 12.8515 3.17188C13.0521 3.44531 13.1523 3.76432 13.1523 4.12891C13.1705 5.05859 13.0156 6.15234 12.6875 7.41016C12.3593 8.66797 11.7669 9.88932 10.9101 11.0742C10.0716 12.2773 8.86846 13.2708 7.30076 14.0547C6.8268 14.2734 6.35284 14.2734 5.87888 14.0547C4.31117 13.2708 3.10805 12.2773 2.26951 11.0742C1.41273 9.88932 0.820287 8.66797 0.492162 7.41016C0.164037 6.15234 0.00908888 5.05859 0.0273181 4.12891C0.0273181 3.76432 0.127578 3.44531 0.328099 3.17188C0.510391 2.89844 0.756485 2.69792 1.06638 2.57031L6.23435 0.382812C6.34372 0.328125 6.46221 0.300781 6.58982 0.300781ZM6.58982 2.13281V12.4688C7.8294 11.8307 8.80466 11.0195 9.5156 10.0352C10.2083 9.05078 10.7005 8.03906 10.9922 7C11.2656 5.94271 11.4023 4.99479 11.4023 4.15625L6.58982 2.13281Z" fill="#8A2BE2"/>
</svg>
