<svg width="17" height="18" viewBox="0 0 17 18" fill="none" xmlns="http://www.w3.org/2000/svg">
<path d="M8.5 9.62598C9.29753 9.62598 10.0267 9.43229 10.6875 9.04492C11.3483 8.65755 11.8838 8.12207 12.2939 7.43848C12.6813 6.75488 12.875 6.02572 12.875 5.25098C12.875 4.47624 12.6813 3.74707 12.2939 3.06348C11.8838 2.37988 11.3483 1.8444 10.6875 1.45703C10.0267 1.06966 9.29753 0.875977 8.5 0.875977C7.70247 0.875977 6.97331 1.06966 6.3125 1.45703C5.65169 1.8444 5.11621 2.37988 4.70605 3.06348C4.31868 3.74707 4.125 4.47624 4.125 5.25098C4.125 6.02572 4.31868 6.75488 4.70605 7.43848C5.11621 8.12207 5.65169 8.65755 6.3125 9.04492C6.97331 9.43229 7.70247 9.62598 8.5 9.62598ZM6.92773 11.2666C5.21875 11.3122 3.7832 11.9046 2.62109 13.0439C1.48177 14.2061 0.889323 15.6416 0.84375 17.3506C0.84375 17.6468 0.946289 17.8861 1.15137 18.0684C1.33366 18.2734 1.57292 18.376 1.86914 18.376H15.1309C15.4271 18.376 15.6663 18.2734 15.8486 18.0684C16.0537 17.8861 16.1562 17.6468 16.1562 17.3506C16.1107 15.6416 15.5182 14.2061 14.3789 13.0439C13.2168 11.9046 11.7812 11.3122 10.0723 11.2666H6.92773Z" fill="#9CA3AF"/>
</svg>
