<svg width="28" height="29" viewBox="0 0 28 29" fill="none" xmlns="http://www.w3.org/2000/svg">
<path d="M0 14.4531C0 6.72114 6.26801 0.453125 14 0.453125C21.732 0.453125 28 6.72114 28 14.4531C28 22.1851 21.732 28.4531 14 28.4531C6.26801 28.4531 0 22.1851 0 14.4531Z" fill="url(#paint0_linear_3312_102)"/>
<g clip-path="url(#clip0_3312_102)">
<path d="M20.2344 12.3203C20.3073 12.5755 20.2526 12.7943 20.0703 12.9766L18.8672 14.0703C18.9036 14.2891 18.9219 14.5169 18.9219 14.7539C18.9219 14.9909 18.9036 15.2188 18.8672 15.4375L20.0703 16.5312C20.2526 16.7135 20.3073 16.9323 20.2344 17.1875C20.1068 17.5156 19.9609 17.8346 19.7969 18.1445L19.6602 18.3633C19.4779 18.6549 19.2773 18.9375 19.0586 19.2109C18.8763 19.4115 18.6576 19.4753 18.4023 19.4023L16.8711 18.9102C16.5065 19.2018 16.1055 19.4297 15.668 19.5938L15.3398 21.1797C15.2669 21.4349 15.0938 21.5898 14.8203 21.6445C14.4557 21.7174 14.0729 21.7539 13.6719 21.7539C13.2708 21.7539 12.8789 21.7174 12.4961 21.6445C12.2409 21.5898 12.0768 21.4349 12.0039 21.1797L11.6758 19.5938C11.2383 19.4297 10.8372 19.2018 10.4727 18.9102L8.94141 19.4023C8.6862 19.4753 8.46745 19.4115 8.28516 19.2109C8.04818 18.9375 7.84766 18.6549 7.68359 18.3633L7.54688 18.1445C7.38281 17.8346 7.23698 17.5247 7.10938 17.2148C7.03646 16.9414 7.09115 16.7135 7.27344 16.5312L8.47656 15.4648C8.4401 15.2279 8.42188 14.9909 8.42188 14.7539C8.42188 14.5169 8.4401 14.2891 8.47656 14.0703L7.27344 12.9766C7.09115 12.7943 7.03646 12.5755 7.10938 12.3203C7.23698 11.9922 7.38281 11.6732 7.54688 11.3633L7.68359 11.1445C7.84766 10.8529 8.04818 10.5703 8.28516 10.2969C8.46745 10.0964 8.6862 10.0326 8.94141 10.1055L10.4727 10.5977C10.8372 10.306 11.2383 10.069 11.6758 9.88672L12.0039 8.32812C12.0768 8.07292 12.25 7.91797 12.5234 7.86328C12.888 7.79036 13.2708 7.75391 13.6719 7.75391C14.0729 7.75391 14.4648 7.79036 14.8477 7.86328C15.1029 7.91797 15.2669 8.07292 15.3398 8.32812L15.668 9.88672C16.1055 10.069 16.5065 10.306 16.8711 10.5977L18.4023 10.1055C18.6576 10.0326 18.8763 10.0964 19.0586 10.2969C19.2956 10.5703 19.5052 10.8529 19.6875 11.1445L19.7969 11.3633C19.9609 11.6732 20.1068 11.9922 20.2344 12.3203ZM13.6719 16.9414C14.4922 16.9232 15.1211 16.5586 15.5586 15.8477C15.9596 15.1185 15.9596 14.3893 15.5586 13.6602C15.1211 12.9492 14.4922 12.5846 13.6719 12.5664C12.8516 12.5846 12.2227 12.9492 11.7852 13.6602C11.3841 14.3893 11.3841 15.1185 11.7852 15.8477C12.2227 16.5586 12.8516 16.9232 13.6719 16.9414Z" fill="#FF5A87"/>
</g>
<defs>
<linearGradient id="paint0_linear_3312_102" x1="0" y1="0" x2="28" y2="0" gradientUnits="userSpaceOnUse">
<stop stop-color="#FF5A87" stop-opacity="0.2"/>
<stop offset="1" stop-color="#8A2BE2" stop-opacity="0.2"/>
</linearGradient>
<clipPath id="clip0_3312_102">
<rect width="14" height="14" fill="white" transform="translate(7 7.45312)"/>
</clipPath>
</defs>
</svg>
