<svg width="35" height="35" viewBox="0 0 35 35" fill="none" xmlns="http://www.w3.org/2000/svg">
<path d="M0 17.5C0 7.83502 7.83502 0 17.5 0C27.165 0 35 7.83502 35 17.5C35 27.165 27.165 35 17.5 35C7.83502 35 0 27.165 0 17.5Z" fill="white" fill-opacity="0.2"/>
<g clip-path="url(#clip0_3315_1055)">
<path d="M24.1172 10.9647C24.4089 11.1653 24.5365 11.4478 24.5 11.8124L22.75 23.1874C22.6953 23.4608 22.5495 23.6705 22.3125 23.8163C22.0573 23.9439 21.8021 23.953 21.5469 23.8436L18.2656 22.5038L16.4062 24.5272C16.1146 24.8007 15.7865 24.8736 15.4219 24.746C15.0755 24.5819 14.8932 24.3085 14.875 23.9257V21.6288C14.875 21.5194 14.9115 21.4283 14.9844 21.3554L19.5781 16.3515C19.724 16.1509 19.7148 15.9504 19.5508 15.7499C19.3685 15.5858 19.168 15.5767 18.9492 15.7225L13.3984 20.6718L10.9922 19.4686C10.6823 19.3046 10.5182 19.0494 10.5 18.703C10.5 18.3567 10.6458 18.0923 10.9375 17.91L23.1875 10.91C23.5156 10.746 23.8255 10.7642 24.1172 10.9647Z" fill="white"/>
</g>
<defs>
<clipPath id="clip0_3315_1055">
<rect width="14" height="14" fill="white" transform="translate(10.5 10.5)"/>
</clipPath>
</defs>
</svg>
