<svg width="35" height="35" viewBox="0 0 35 35" fill="none" xmlns="http://www.w3.org/2000/svg">
<path d="M0 17.5C0 7.83502 7.83502 0 17.5 0C27.165 0 35 7.83502 35 17.5C35 27.165 27.165 35 17.5 35C7.83502 35 0 27.165 0 17.5Z" fill="#FF5A87" fill-opacity="0.2"/>
<g clip-path="url(#clip0_3315_1051)">
<path d="M11.8125 19.0039L16.7344 23.625C16.9531 23.8255 17.2083 23.9258 17.5 23.9258C17.7917 23.9258 18.0469 23.8255 18.2656 23.625L23.1875 19.0039C24.0443 18.2018 24.4818 17.2083 24.5 16.0234V15.8594C24.4818 14.875 24.1719 14.0365 23.5703 13.3438C22.9688 12.6328 22.194 12.1862 21.2461 12.0039C20.6081 11.9128 19.9883 11.9583 19.3867 12.1406C18.8034 12.3229 18.2839 12.6419 17.8281 13.0977L17.5 13.4258L17.1719 13.0977C16.7161 12.6419 16.1966 12.3229 15.6133 12.1406C15.0117 11.9583 14.3919 11.9128 13.7539 12.0039C12.806 12.1862 12.0312 12.6328 11.4297 13.3438C10.8281 14.0365 10.5182 14.875 10.5 15.8594V16.0234C10.5182 17.2083 10.9557 18.2018 11.8125 19.0039Z" fill="#FF5A87"/>
</g>
<defs>
<clipPath id="clip0_3315_1051">
<rect width="14" height="14" fill="white" transform="translate(10.5 10.5)"/>
</clipPath>
</defs>
</svg>
