<svg width="19" height="17" viewBox="0 0 19 17" fill="none" xmlns="http://www.w3.org/2000/svg">
<path d="M0.75 3.15723C0.772786 2.54199 0.989258 2.0293 1.39941 1.61914C1.80957 1.20898 2.32227 0.992513 2.9375 0.969727H16.0625C16.6777 0.992513 17.1904 1.20898 17.6006 1.61914C18.0107 2.0293 18.2272 2.54199 18.25 3.15723V14.0947C18.2272 14.71 18.0107 15.2227 17.6006 15.6328C17.1904 16.043 16.6777 16.2594 16.0625 16.2822H2.9375C2.32227 16.2594 1.80957 16.043 1.39941 15.6328C0.989258 15.2227 0.772786 14.71 0.75 14.0947V3.15723ZM2.39062 12.4541V13.5479C2.41341 13.8896 2.5957 14.0719 2.9375 14.0947H4.03125C4.37305 14.0719 4.55534 13.8896 4.57812 13.5479V12.4541C4.55534 12.1123 4.37305 11.93 4.03125 11.9072H2.9375C2.5957 11.93 2.41341 12.1123 2.39062 12.4541ZM14.9688 11.9072C14.627 11.93 14.4447 12.1123 14.4219 12.4541V13.5479C14.4447 13.8896 14.627 14.0719 14.9688 14.0947H16.0625C16.4043 14.0719 16.5866 13.8896 16.6094 13.5479V12.4541C16.5866 12.1123 16.4043 11.93 16.0625 11.9072H14.9688ZM2.39062 8.0791V9.17285C2.41341 9.51465 2.5957 9.69694 2.9375 9.71973H4.03125C4.37305 9.69694 4.55534 9.51465 4.57812 9.17285V8.0791C4.55534 7.7373 4.37305 7.55501 4.03125 7.53223H2.9375C2.5957 7.55501 2.41341 7.7373 2.39062 8.0791ZM14.9688 7.53223C14.627 7.55501 14.4447 7.7373 14.4219 8.0791V9.17285C14.4447 9.51465 14.627 9.69694 14.9688 9.71973H16.0625C16.4043 9.69694 16.5866 9.51465 16.6094 9.17285V8.0791C16.5866 7.7373 16.4043 7.55501 16.0625 7.53223H14.9688ZM2.39062 3.7041V4.79785C2.41341 5.13965 2.5957 5.32194 2.9375 5.34473H4.03125C4.37305 5.32194 4.55534 5.13965 4.57812 4.79785V3.7041C4.55534 3.3623 4.37305 3.18001 4.03125 3.15723H2.9375C2.5957 3.18001 2.41341 3.3623 2.39062 3.7041ZM14.9688 3.15723C14.627 3.18001 14.4447 3.3623 14.4219 3.7041V4.79785C14.4447 5.13965 14.627 5.32194 14.9688 5.34473H16.0625C16.4043 5.32194 16.5866 5.13965 16.6094 4.79785V3.7041C16.5866 3.3623 16.4043 3.18001 16.0625 3.15723H14.9688ZM6.21875 4.25098V6.43848C6.21875 6.75749 6.32129 7.01953 6.52637 7.22461C6.73145 7.42969 6.99349 7.53223 7.3125 7.53223H11.6875C12.0065 7.53223 12.2686 7.42969 12.4736 7.22461C12.6787 7.01953 12.7812 6.75749 12.7812 6.43848V4.25098C12.7812 3.93197 12.6787 3.66992 12.4736 3.46484C12.2686 3.25977 12.0065 3.15723 11.6875 3.15723H7.3125C6.99349 3.15723 6.73145 3.25977 6.52637 3.46484C6.32129 3.66992 6.21875 3.93197 6.21875 4.25098ZM7.3125 9.71973C6.99349 9.71973 6.73145 9.82227 6.52637 10.0273C6.32129 10.2324 6.21875 10.4945 6.21875 10.8135V13.001C6.21875 13.32 6.32129 13.582 6.52637 13.7871C6.73145 13.9922 6.99349 14.0947 7.3125 14.0947H11.6875C12.0065 14.0947 12.2686 13.9922 12.4736 13.7871C12.6787 13.582 12.7812 13.32 12.7812 13.001V10.8135C12.7812 10.4945 12.6787 10.2324 12.4736 10.0273C12.2686 9.82227 12.0065 9.71973 11.6875 9.71973H7.3125Z" fill="#9CA3AF"/>
</svg>
